<svg width="256" height="256" viewBox="0 0 256 256" fill="none" xmlns="http://www.w3.org/2000/svg">
    <title>KasKita</title>
    <defs>
        <linearGradient id="bg" x1="36" y1="28" x2="220" y2="228" gradientUnits="userSpaceOnUse">
            <stop stop-color="#10B981" />
            <stop offset="0.58" stop-color="#0D9488" />
            <stop offset="1" stop-color="#0F766E" />
        </linearGradient>
        <linearGradient id="coin" x1="160" y1="70" x2="215" y2="126" gradientUnits="userSpaceOnUse">
            <stop stop-color="#FDE68A" />
            <stop offset="1" stop-color="#F59E0B" />
        </linearGradient>
        <filter id="shadow" x="28" y="28" width="208" height="208" color-interpolation-filters="sRGB" filterUnits="userSpaceOnUse">
            <feDropShadow dx="0" dy="14" flood-color="#064E3B" flood-opacity="0.25" stdDeviation="16" />
        </filter>
    </defs>
    <rect width="256" height="256" fill="#ECFDF5" rx="56" />
    <rect x="28" y="28" width="200" height="200" fill="url(#bg)" filter="url(#shadow)" rx="48" />
    <path d="M78 91C78 76.088 90.088 64 105 64H161C175.912 64 188 76.088 188 91V100H160C136.804 100 118 118.804 118 142C118 165.196 136.804 184 160 184H188V189C188 203.912 175.912 216 161 216H105C90.088 216 78 203.912 78 189V91Z" fill="white" fill-opacity="0.95" />
    <path d="M104 87H157C161.418 87 165 90.582 165 95V105H104C99.582 105 96 101.418 96 97V95C96 90.582 99.582 87 104 87Z" fill="#CCFBF1" />
    <path d="M138 124H194C207.255 124 218 134.745 218 148C218 161.255 207.255 172 194 172H138V124Z" fill="#064E3B" fill-opacity="0.22" />
    <circle cx="188" cy="148" r="15" fill="url(#coin)" />
    <path d="M102 176V118H118V141.5L140.5 118H160.5L135.75 143.25L162 176H141L123.8 153.7L118 159.6V176H102Z" fill="#065F46" />
</svg>
